<mxfile host="app.diagrams.net" modified="2021-12-03T18:27:39.630Z" agent="5.0 (Windows NT 10.0; Win64; x64) AppleWebKit/537.36 (KHTML, like Gecko) Chrome/96.0.4664.45 Safari/537.36" etag="QWyQojzdyCgDagCW-DjJ" version="15.8.8" type="github">
  <diagram id="1B-PBqRpE1d1nzgjM34z" name="Page-1">
    <mxGraphModel dx="1951" dy="1536" grid="1" gridSize="10" guides="1" tooltips="1" connect="1" arrows="1" fold="1" page="1" pageScale="1" pageWidth="850" pageHeight="1100" math="0" shadow="0">
      <root>
        <mxCell id="0" />
        <mxCell id="1" parent="0" />
        <mxCell id="lWq34r1TajdIWoLoY4OA-6" value="" style="rounded=1;whiteSpace=wrap;html=1;" vertex="1" parent="1">
          <mxGeometry x="500" y="30" width="320" height="330" as="geometry" />
        </mxCell>
        <mxCell id="lWq34r1TajdIWoLoY4OA-14" style="edgeStyle=orthogonalEdgeStyle;rounded=0;orthogonalLoop=1;jettySize=auto;html=1;exitX=0.5;exitY=0;exitDx=0;exitDy=0;exitPerimeter=0;entryX=-0.077;entryY=0.5;entryDx=0;entryDy=0;entryPerimeter=0;" edge="1" parent="1" source="lWq34r1TajdIWoLoY4OA-1" target="lWq34r1TajdIWoLoY4OA-7">
          <mxGeometry relative="1" as="geometry" />
        </mxCell>
        <mxCell id="lWq34r1TajdIWoLoY4OA-1" value="" style="shape=cylinder3;whiteSpace=wrap;html=1;boundedLbl=1;backgroundOutline=1;size=15;rotation=90;" vertex="1" parent="1">
          <mxGeometry x="311.25" width="75" height="232.5" as="geometry" />
        </mxCell>
        <mxCell id="lWq34r1TajdIWoLoY4OA-2" value="topic: redis-server" style="text;html=1;strokeColor=none;fillColor=none;align=center;verticalAlign=middle;whiteSpace=wrap;rounded=0;" vertex="1" parent="1">
          <mxGeometry x="285" y="83.75" width="130" height="30" as="geometry" />
        </mxCell>
        <mxCell id="lWq34r1TajdIWoLoY4OA-16" style="edgeStyle=orthogonalEdgeStyle;rounded=0;orthogonalLoop=1;jettySize=auto;html=1;exitX=0.5;exitY=0;exitDx=0;exitDy=0;exitPerimeter=0;entryX=0.5;entryY=0;entryDx=0;entryDy=0;" edge="1" parent="1" source="lWq34r1TajdIWoLoY4OA-3" target="lWq34r1TajdIWoLoY4OA-7">
          <mxGeometry relative="1" as="geometry" />
        </mxCell>
        <mxCell id="lWq34r1TajdIWoLoY4OA-3" value="" style="shape=cylinder3;whiteSpace=wrap;html=1;boundedLbl=1;backgroundOutline=1;size=15;rotation=90;" vertex="1" parent="1">
          <mxGeometry x="297.19" y="-165.31" width="111.25" height="250.62" as="geometry" />
        </mxCell>
        <mxCell id="lWq34r1TajdIWoLoY4OA-4" value="topic: steady-events" style="text;html=1;strokeColor=none;fillColor=none;align=center;verticalAlign=middle;whiteSpace=wrap;rounded=0;" vertex="1" parent="1">
          <mxGeometry x="293.75" y="-89.38" width="130" height="30" as="geometry" />
        </mxCell>
        <mxCell id="lWq34r1TajdIWoLoY4OA-18" style="edgeStyle=orthogonalEdgeStyle;rounded=0;orthogonalLoop=1;jettySize=auto;html=1;exitX=0.5;exitY=1;exitDx=0;exitDy=0;entryX=0.5;entryY=0;entryDx=0;entryDy=0;" edge="1" parent="1" source="lWq34r1TajdIWoLoY4OA-7" target="lWq34r1TajdIWoLoY4OA-17">
          <mxGeometry relative="1" as="geometry" />
        </mxCell>
        <mxCell id="lWq34r1TajdIWoLoY4OA-45" style="edgeStyle=orthogonalEdgeStyle;rounded=0;orthogonalLoop=1;jettySize=auto;html=1;exitX=1;exitY=0.5;exitDx=0;exitDy=0;entryX=0;entryY=0.5;entryDx=0;entryDy=0;" edge="1" parent="1" source="lWq34r1TajdIWoLoY4OA-7" target="lWq34r1TajdIWoLoY4OA-42">
          <mxGeometry relative="1" as="geometry" />
        </mxCell>
        <mxCell id="lWq34r1TajdIWoLoY4OA-7" value="&lt;code style=&quot;box-sizing: border-box; font-family: menlo, monaco, consolas, &amp;quot;courier new&amp;quot;, monospace; font-size: 12.6px; padding: 2px 4px; color: rgb(48, 48, 48); border-radius: 0px; border: 1px solid rgb(220, 220, 220);&quot;&gt;sparkpykafkajoin.py&lt;/code&gt;&lt;span style=&quot;color: rgb(82, 92, 101); font-family: &amp;quot;open sans&amp;quot;; font-size: 14px;&quot;&gt;&amp;nbsp;&lt;/span&gt;" style="text;html=1;strokeColor=none;fillColor=#CEFF47;align=center;verticalAlign=middle;whiteSpace=wrap;rounded=0;labelBackgroundColor=none;" vertex="1" parent="1">
          <mxGeometry x="580" y="65" width="130" height="30" as="geometry" />
        </mxCell>
        <mxCell id="lWq34r1TajdIWoLoY4OA-36" style="edgeStyle=orthogonalEdgeStyle;rounded=0;orthogonalLoop=1;jettySize=auto;html=1;exitX=0;exitY=0.75;exitDx=0;exitDy=0;entryX=0.25;entryY=0;entryDx=0;entryDy=0;" edge="1" parent="1" source="lWq34r1TajdIWoLoY4OA-17" target="lWq34r1TajdIWoLoY4OA-19">
          <mxGeometry relative="1" as="geometry" />
        </mxCell>
        <mxCell id="lWq34r1TajdIWoLoY4OA-37" style="edgeStyle=orthogonalEdgeStyle;rounded=0;orthogonalLoop=1;jettySize=auto;html=1;exitX=1;exitY=0.5;exitDx=0;exitDy=0;entryX=0.606;entryY=-0.008;entryDx=0;entryDy=0;entryPerimeter=0;" edge="1" parent="1" source="lWq34r1TajdIWoLoY4OA-17" target="lWq34r1TajdIWoLoY4OA-20">
          <mxGeometry relative="1" as="geometry" />
        </mxCell>
        <mxCell id="lWq34r1TajdIWoLoY4OA-17" value="&lt;span style=&quot;color: rgb(82, 92, 101); font-family: &amp;quot;open sans&amp;quot;; font-size: 14px;&quot;&gt;parse JSON and decode Base64 encoded data&lt;/span&gt;" style="text;html=1;align=center;verticalAlign=middle;whiteSpace=wrap;rounded=0;fillColor=#ffe6cc;strokeColor=#d79b00;labelBackgroundColor=none;" vertex="1" parent="1">
          <mxGeometry x="580" y="125" width="140" height="30" as="geometry" />
        </mxCell>
        <mxCell id="lWq34r1TajdIWoLoY4OA-19" value="" style="rounded=0;whiteSpace=wrap;html=1;labelBackgroundColor=none;fillColor=none;" vertex="1" parent="1">
          <mxGeometry x="520" y="170" width="130" height="80" as="geometry" />
        </mxCell>
        <mxCell id="lWq34r1TajdIWoLoY4OA-20" value="" style="rounded=0;whiteSpace=wrap;html=1;labelBackgroundColor=none;fillColor=none;" vertex="1" parent="1">
          <mxGeometry x="680" y="170" width="130" height="80" as="geometry" />
        </mxCell>
        <mxCell id="lWq34r1TajdIWoLoY4OA-21" value="&lt;div&gt;&lt;span&gt;DF1: &lt;/span&gt;&lt;font color=&quot;#525c65&quot; face=&quot;Open Sans&quot;&gt;&lt;span style=&quot;font-size: 14px ; background-color: rgb(255 , 255 , 255)&quot;&gt;&lt;b&gt;emailAndBirthYear&lt;/b&gt;&lt;/span&gt;&lt;/font&gt;&lt;/div&gt;" style="text;html=1;strokeColor=none;fillColor=none;align=center;verticalAlign=middle;whiteSpace=wrap;rounded=0;labelBackgroundColor=none;" vertex="1" parent="1">
          <mxGeometry x="540" y="180" width="90" height="30" as="geometry" />
        </mxCell>
        <mxCell id="lWq34r1TajdIWoLoY4OA-28" style="edgeStyle=orthogonalEdgeStyle;rounded=0;orthogonalLoop=1;jettySize=auto;html=1;exitX=0.5;exitY=1;exitDx=0;exitDy=0;entryX=0.5;entryY=0;entryDx=0;entryDy=0;" edge="1" parent="1" source="lWq34r1TajdIWoLoY4OA-23" target="lWq34r1TajdIWoLoY4OA-26">
          <mxGeometry relative="1" as="geometry" />
        </mxCell>
        <mxCell id="lWq34r1TajdIWoLoY4OA-23" value="Email&lt;br&gt;Birth Year" style="text;html=1;strokeColor=none;fillColor=none;align=center;verticalAlign=middle;whiteSpace=wrap;rounded=0;labelBackgroundColor=none;" vertex="1" parent="1">
          <mxGeometry x="555" y="220" width="60" height="30" as="geometry" />
        </mxCell>
        <mxCell id="lWq34r1TajdIWoLoY4OA-29" style="edgeStyle=orthogonalEdgeStyle;rounded=0;orthogonalLoop=1;jettySize=auto;html=1;exitX=0.5;exitY=1;exitDx=0;exitDy=0;entryX=0.5;entryY=0;entryDx=0;entryDy=0;" edge="1" parent="1" source="lWq34r1TajdIWoLoY4OA-24" target="lWq34r1TajdIWoLoY4OA-26">
          <mxGeometry relative="1" as="geometry">
            <mxPoint x="670" y="290" as="targetPoint" />
          </mxGeometry>
        </mxCell>
        <mxCell id="lWq34r1TajdIWoLoY4OA-24" value="Email&lt;br&gt;Risk Score" style="text;html=1;strokeColor=none;fillColor=none;align=center;verticalAlign=middle;whiteSpace=wrap;rounded=0;labelBackgroundColor=none;" vertex="1" parent="1">
          <mxGeometry x="710" y="220" width="75" height="30" as="geometry" />
        </mxCell>
        <mxCell id="lWq34r1TajdIWoLoY4OA-25" value="&lt;div&gt;&lt;span&gt;DF2: &lt;/span&gt;&lt;font color=&quot;#525c65&quot; face=&quot;Open Sans&quot;&gt;&lt;span style=&quot;font-size: 14px ; background-color: rgb(255 , 255 , 255)&quot;&gt;&lt;b&gt;emailAndRiskScore&lt;/b&gt;&lt;/span&gt;&lt;/font&gt;&lt;/div&gt;" style="text;html=1;strokeColor=none;fillColor=none;align=center;verticalAlign=middle;whiteSpace=wrap;rounded=0;labelBackgroundColor=none;" vertex="1" parent="1">
          <mxGeometry x="697.5" y="180" width="90" height="30" as="geometry" />
        </mxCell>
        <mxCell id="lWq34r1TajdIWoLoY4OA-40" style="edgeStyle=orthogonalEdgeStyle;rounded=0;orthogonalLoop=1;jettySize=auto;html=1;exitX=0.5;exitY=1;exitDx=0;exitDy=0;entryX=0.5;entryY=0;entryDx=0;entryDy=0;entryPerimeter=0;" edge="1" parent="1" source="lWq34r1TajdIWoLoY4OA-26" target="lWq34r1TajdIWoLoY4OA-38">
          <mxGeometry relative="1" as="geometry" />
        </mxCell>
        <mxCell id="lWq34r1TajdIWoLoY4OA-26" value="" style="rounded=0;whiteSpace=wrap;html=1;labelBackgroundColor=none;fillColor=none;" vertex="1" parent="1">
          <mxGeometry x="595" y="290" width="145" height="50" as="geometry" />
        </mxCell>
        <mxCell id="lWq34r1TajdIWoLoY4OA-27" value="&lt;div&gt;&lt;span&gt;DF3: &lt;/span&gt;&lt;font color=&quot;#525c65&quot; face=&quot;Open Sans&quot;&gt;&lt;span style=&quot;font-size: 14px ; background-color: rgb(255 , 255 , 255)&quot;&gt;&lt;b&gt;riskScoreByBirthYear&lt;/b&gt;&lt;/span&gt;&lt;/font&gt;&lt;/div&gt;" style="text;html=1;strokeColor=none;fillColor=none;align=center;verticalAlign=middle;whiteSpace=wrap;rounded=0;labelBackgroundColor=none;" vertex="1" parent="1">
          <mxGeometry x="622.5" y="300" width="90" height="30" as="geometry" />
        </mxCell>
        <mxCell id="lWq34r1TajdIWoLoY4OA-30" value="Join" style="text;html=1;strokeColor=none;fillColor=none;align=center;verticalAlign=middle;whiteSpace=wrap;rounded=0;labelBackgroundColor=none;" vertex="1" parent="1">
          <mxGeometry x="635" y="237" width="60" height="30" as="geometry" />
        </mxCell>
        <mxCell id="lWq34r1TajdIWoLoY4OA-33" value="Source" style="text;html=1;strokeColor=none;fillColor=none;align=center;verticalAlign=middle;whiteSpace=wrap;rounded=0;labelBackgroundColor=none;" vertex="1" parent="1">
          <mxGeometry x="330" y="35" width="60" height="30" as="geometry" />
        </mxCell>
        <mxCell id="lWq34r1TajdIWoLoY4OA-63" style="edgeStyle=orthogonalEdgeStyle;rounded=0;orthogonalLoop=1;jettySize=auto;html=1;" edge="1" parent="1" source="lWq34r1TajdIWoLoY4OA-38">
          <mxGeometry relative="1" as="geometry">
            <mxPoint x="140" y="402.5" as="targetPoint" />
          </mxGeometry>
        </mxCell>
        <mxCell id="lWq34r1TajdIWoLoY4OA-38" value="" style="shape=cylinder3;whiteSpace=wrap;html=1;boundedLbl=1;backgroundOutline=1;size=15;rotation=90;" vertex="1" parent="1">
          <mxGeometry x="302.5" y="272.5" width="85" height="260" as="geometry" />
        </mxCell>
        <mxCell id="lWq34r1TajdIWoLoY4OA-39" value="&lt;span style=&quot;color: rgb(48 , 48 , 48) ; font-family: &amp;#34;menlo&amp;#34; , &amp;#34;monaco&amp;#34; , &amp;#34;consolas&amp;#34; , &amp;#34;courier new&amp;#34; , monospace ; font-size: 12.6px ; background-color: rgb(243 , 243 , 243)&quot;&gt;/home/workspace/stedi-application/application.conf&lt;br&gt;&lt;/span&gt;&lt;br&gt;&lt;br&gt;topic:&amp;nbsp;&lt;span style=&quot;background-color: transparent ; color: inherit ; font-family: &amp;#34;menlo&amp;#34; , &amp;#34;monaco&amp;#34; , &amp;#34;consolas&amp;#34; , &amp;#34;courier new&amp;#34; , monospace ; font-size: inherit&quot;&gt;customer-risk&lt;/span&gt;" style="text;html=1;strokeColor=none;fillColor=none;align=center;verticalAlign=middle;whiteSpace=wrap;rounded=0;" vertex="1" parent="1">
          <mxGeometry x="278.44" y="390" width="130" height="30" as="geometry" />
        </mxCell>
        <mxCell id="lWq34r1TajdIWoLoY4OA-41" value="Sink" style="text;html=1;strokeColor=none;fillColor=none;align=center;verticalAlign=middle;whiteSpace=wrap;rounded=0;labelBackgroundColor=none;" vertex="1" parent="1">
          <mxGeometry x="310" y="330" width="60" height="30" as="geometry" />
        </mxCell>
        <mxCell id="lWq34r1TajdIWoLoY4OA-42" value="" style="rounded=0;whiteSpace=wrap;html=1;labelBackgroundColor=none;fillColor=none;" vertex="1" parent="1">
          <mxGeometry x="910" y="50" width="340" height="60" as="geometry" />
        </mxCell>
        <mxCell id="lWq34r1TajdIWoLoY4OA-43" value="Log:" style="text;html=1;strokeColor=none;fillColor=none;align=center;verticalAlign=middle;whiteSpace=wrap;rounded=0;labelBackgroundColor=none;" vertex="1" parent="1">
          <mxGeometry x="910" y="50" width="60" height="30" as="geometry" />
        </mxCell>
        <mxCell id="lWq34r1TajdIWoLoY4OA-44" value="&lt;span style=&quot;color: rgb(15 , 43 , 61) ; font-family: &amp;#34;menlo&amp;#34; , &amp;#34;monaco&amp;#34; , &amp;#34;consolas&amp;#34; , &amp;#34;courier new&amp;#34; , monospace ; font-size: 14.4px ; text-align: left ; background-color: rgb(247 , 247 , 248)&quot;&gt;/home/workspace/spark/logs/kafkajoin.log&lt;/span&gt;" style="text;html=1;strokeColor=none;fillColor=none;align=center;verticalAlign=middle;whiteSpace=wrap;rounded=0;labelBackgroundColor=none;" vertex="1" parent="1">
          <mxGeometry x="920" y="80" width="320" height="30" as="geometry" />
        </mxCell>
        <mxCell id="lWq34r1TajdIWoLoY4OA-46" value="&lt;span style=&quot;color: rgb(82 , 92 , 101) ; font-family: &amp;#34;open sans&amp;#34; ; font-size: 14px ; font-style: normal ; font-weight: 400 ; letter-spacing: normal ; text-align: left ; text-indent: 0px ; text-transform: none ; word-spacing: 0px ; background-color: rgb(255 , 255 , 255) ; display: inline ; float: none&quot;&gt;Redis SortedSet : RapidStepTest&lt;/span&gt;" style="text;whiteSpace=wrap;html=1;" vertex="1" parent="1">
          <mxGeometry x="240" y="113.75" width="240" height="30" as="geometry" />
        </mxCell>
        <mxCell id="lWq34r1TajdIWoLoY4OA-52" style="edgeStyle=orthogonalEdgeStyle;rounded=0;orthogonalLoop=1;jettySize=auto;html=1;entryX=0.5;entryY=1;entryDx=0;entryDy=0;entryPerimeter=0;" edge="1" parent="1" source="lWq34r1TajdIWoLoY4OA-47" target="lWq34r1TajdIWoLoY4OA-3">
          <mxGeometry relative="1" as="geometry" />
        </mxCell>
        <mxCell id="lWq34r1TajdIWoLoY4OA-56" style="edgeStyle=orthogonalEdgeStyle;rounded=0;orthogonalLoop=1;jettySize=auto;html=1;exitX=0;exitY=0.5;exitDx=0;exitDy=0;entryX=0;entryY=0.5;entryDx=0;entryDy=0;" edge="1" parent="1" source="lWq34r1TajdIWoLoY4OA-47" target="lWq34r1TajdIWoLoY4OA-53">
          <mxGeometry relative="1" as="geometry">
            <Array as="points">
              <mxPoint x="10" y="-40" />
              <mxPoint x="10" y="277" />
            </Array>
          </mxGeometry>
        </mxCell>
        <mxCell id="lWq34r1TajdIWoLoY4OA-47" value="STEDI Mobile &lt;br&gt;Application" style="whiteSpace=wrap;html=1;aspect=fixed;labelBackgroundColor=none;fillColor=none;" vertex="1" parent="1">
          <mxGeometry x="55" y="-80" width="80" height="80" as="geometry" />
        </mxCell>
        <mxCell id="lWq34r1TajdIWoLoY4OA-49" style="edgeStyle=orthogonalEdgeStyle;rounded=0;orthogonalLoop=1;jettySize=auto;html=1;exitX=1;exitY=0.5;exitDx=0;exitDy=0;exitPerimeter=0;" edge="1" parent="1" source="lWq34r1TajdIWoLoY4OA-48">
          <mxGeometry relative="1" as="geometry">
            <mxPoint x="230" y="118" as="targetPoint" />
          </mxGeometry>
        </mxCell>
        <mxCell id="lWq34r1TajdIWoLoY4OA-48" value="Redis Database" style="shape=cylinder3;whiteSpace=wrap;html=1;boundedLbl=1;backgroundOutline=1;size=15;labelBackgroundColor=none;fillColor=none;" vertex="1" parent="1">
          <mxGeometry x="40" y="50" width="120" height="140" as="geometry" />
        </mxCell>
        <mxCell id="lWq34r1TajdIWoLoY4OA-54" style="edgeStyle=orthogonalEdgeStyle;rounded=0;orthogonalLoop=1;jettySize=auto;html=1;entryX=0.5;entryY=1;entryDx=0;entryDy=0;entryPerimeter=0;" edge="1" parent="1" source="lWq34r1TajdIWoLoY4OA-53" target="lWq34r1TajdIWoLoY4OA-48">
          <mxGeometry relative="1" as="geometry" />
        </mxCell>
        <mxCell id="lWq34r1TajdIWoLoY4OA-53" value="Real-time data source" style="whiteSpace=wrap;html=1;aspect=fixed;labelBackgroundColor=none;fillColor=none;" vertex="1" parent="1">
          <mxGeometry x="60" y="237" width="80" height="80" as="geometry" />
        </mxCell>
        <mxCell id="lWq34r1TajdIWoLoY4OA-55" value="Customer Information" style="text;html=1;strokeColor=default;fillColor=none;align=center;verticalAlign=middle;whiteSpace=wrap;rounded=1;labelBackgroundColor=none;" vertex="1" parent="1">
          <mxGeometry x="65" y="141" width="65" height="30" as="geometry" />
        </mxCell>
        <mxCell id="lWq34r1TajdIWoLoY4OA-57" value="&lt;div&gt;{&quot;customer&quot;:&quot;Jason.Mitra@test.com&quot;,&lt;/div&gt;&lt;div&gt;&quot;score&quot;:7.0,&lt;/div&gt;&lt;div&gt;&quot;riskDate&quot;:&quot;2020-09-14T07:54:06.417Z&quot;}&lt;/div&gt;" style="text;html=1;strokeColor=none;fillColor=none;align=center;verticalAlign=middle;whiteSpace=wrap;rounded=0;labelBackgroundColor=none;" vertex="1" parent="1">
          <mxGeometry x="315" y="-38.129999999999995" width="60" height="30" as="geometry" />
        </mxCell>
        <mxCell id="lWq34r1TajdIWoLoY4OA-60" value="" style="shape=image;html=1;verticalAlign=top;verticalLabelPosition=bottom;labelBackgroundColor=#ffffff;imageAspect=0;aspect=fixed;image=https://cdn0.iconfinder.com/data/icons/business-collection-2027/60/graph-128.png;rounded=1;strokeColor=default;fillColor=none;" vertex="1" parent="1">
          <mxGeometry x="30" y="350" width="100" height="100" as="geometry" />
        </mxCell>
        <mxCell id="lWq34r1TajdIWoLoY4OA-61" value="Birth Year" style="text;html=1;strokeColor=none;fillColor=none;align=center;verticalAlign=middle;whiteSpace=wrap;rounded=0;labelBackgroundColor=none;" vertex="1" parent="1">
          <mxGeometry x="52" y="450" width="60" height="30" as="geometry" />
        </mxCell>
        <mxCell id="lWq34r1TajdIWoLoY4OA-62" value="Risk Score" style="text;html=1;strokeColor=none;fillColor=none;align=center;verticalAlign=middle;whiteSpace=wrap;rounded=0;labelBackgroundColor=none;rotation=-90;" vertex="1" parent="1">
          <mxGeometry x="-45" y="385" width="110" height="30" as="geometry" />
        </mxCell>
      </root>
    </mxGraphModel>
  </diagram>
</mxfile>
